<svg data-v-423bf9ae="" xmlns="http://www.w3.org/2000/svg" viewBox="0 0 414.70920089963874 163" class="iconAbove"><!----><defs data-v-423bf9ae=""><linearGradient data-v-423bf9ae="" gradientTransform="rotate(25)" id="5cc9b194-a3ec-408f-b597-666483f8e9df" x1="0%" y1="0%" x2="100%" y2="0%"><stop data-v-423bf9ae="" offset="0%" style="stop-color: rgb(235, 76, 0); stop-opacity: 1;"></stop><stop data-v-423bf9ae="" offset="100%" style="stop-color: rgb(242, 169, 0); stop-opacity: 1;"></stop></linearGradient></defs><!----><g data-v-423bf9ae="" id="53ed2eb1-7823-4a1a-ba16-a614ba28acd1" fill="#ffffff" transform="matrix(5.628517904206723,0,0,5.628517904206723,-0.39400124947641757,85.32645199824296)"><path d="M1.20 3.65L1.20 3.65L4.16 3.70L4.16 3.70Q6.45 3.70 7.52 3.53L7.52 3.53L7.52 3.53Q7.67 3.82 7.67 4.20L7.67 4.20L7.67 4.20Q7.67 4.58 7.34 4.88L7.34 4.88L7.34 4.88Q7 5.18 6.52 5.18L6.52 5.18L4.91 5.00L4.91 5.00Q4.91 5.10 4.84 5.87L4.84 5.87L4.84 5.87Q4.65 7.76 4.65 9.66L4.65 9.66L4.65 9.66Q4.65 11.56 4.94 13.47L4.94 13.47L4.94 13.47Q4.48 13.64 3.98 13.64L3.98 13.64L3.98 13.64Q3.47 13.64 3.11 13.35L3.11 13.35L3.11 13.35Q2.74 13.06 2.74 12.48L2.74 12.48L2.74 12.48Q2.74 11.90 2.88 10.43L2.88 10.43L2.88 10.43Q3.02 8.96 3.02 7.57L3.02 7.57L3.02 7.57Q3.02 6.17 2.88 4.97L2.88 4.97L2.88 4.97Q1.19 5.05 0.24 5.45L0.24 5.45L0.24 5.45Q0.07 5.12 0.07 4.73L0.07 4.73L0.07 4.73Q0.07 4.33 0.39 3.99L0.39 3.99L0.39 3.99Q0.71 3.65 1.20 3.65ZM10.51 13.47L10.51 13.47Q10.08 13.64 9.59 13.64L9.59 13.64L9.59 13.64Q9.10 13.64 8.80 13.41L8.80 13.41L8.80 13.41Q8.50 13.17 8.50 12.76L8.50 12.76L8.50 12.76Q8.50 12.35 8.62 11.26L8.62 11.26L8.62 11.26Q8.75 10.16 8.75 9.14L8.75 9.14L8.75 9.14Q8.75 8.11 8.43 6.72L8.43 6.72L8.43 6.72Q8.88 6.55 9.31 6.55L9.31 6.55L9.31 6.55Q9.74 6.55 10.06 6.85L10.06 6.85L10.06 6.85Q10.37 7.14 10.37 7.63L10.37 7.63L10.37 7.63Q10.37 7.88 10.29 8.38L10.29 8.38L10.29 8.38Q10.21 8.88 10.19 9.13L10.19 9.13L10.19 9.13Q10.74 7.88 11.49 7.18L11.49 7.18L11.49 7.18Q12.24 6.47 12.98 6.47L12.98 6.47L12.98 6.47Q13.50 6.47 13.80 6.83L13.80 6.83L13.80 6.83Q14.11 7.20 14.11 7.75L14.11 7.75L14.11 7.75Q14.11 8.30 13.83 8.64L13.83 8.64L13.83 8.64Q13.55 8.99 13.14 8.99L13.14 8.99L13.14 8.99Q12.73 8.99 12.47 8.90L12.47 8.90L12.47 8.90Q12.52 8.74 12.52 8.60L12.52 8.60L12.52 8.60Q12.52 8.02 12.11 8.02L12.11 8.02L12.11 8.02Q11.49 8.02 10.96 9.26L10.96 9.26L10.96 9.26Q10.42 10.50 10.23 11.58L10.23 11.58L10.23 11.58Q10.30 12.63 10.51 13.47L10.51 13.47ZM21.25 7.04L21.25 7.04L21.25 7.04Q20.87 8.65 20.87 10.27L20.87 10.27L20.87 10.27Q20.87 11.89 21.24 13.47L21.24 13.47L21.24 13.47Q20.73 13.64 20.20 13.64L20.20 13.64L20.20 13.64Q19.67 13.64 19.46 13.32L19.46 13.32L19.46 13.32Q19.25 13.01 19.25 12.41L19.25 12.41L19.25 12.41Q19.25 11.82 19.43 10.78L19.43 10.78L19.43 10.78Q18.44 12.91 17.51 13.47L17.51 13.47L17.51 13.47Q17.09 13.72 16.65 13.72L16.65 13.72L16.65 13.72Q15.58 13.72 14.99 12.93L14.99 12.93L14.99 12.93Q14.41 12.14 14.41 10.96L14.41 10.96L14.41 10.96Q14.41 9.17 15.40 7.82L15.40 7.82L15.40 7.82Q16.39 6.47 17.98 6.47L17.98 6.47L17.98 6.47Q19.57 6.47 21.25 7.04ZM19.42 7.88L19.42 7.88L19.42 7.88Q18.68 7.66 18.16 7.66L18.16 7.66L18.16 7.66Q17.11 7.66 16.59 8.12L16.59 8.12L16.59 8.12Q16.11 9.30 16.11 10.51L16.11 10.51L16.11 10.51Q16.11 11.16 16.32 11.82L16.32 11.82L16.32 11.82Q16.52 12.47 16.94 12.47L16.94 12.47L16.94 12.47Q17.43 12.47 18.20 11.03L18.20 11.03L18.20 11.03Q18.97 9.59 19.42 7.88ZM27.96 11.42L27.96 11.42L27.96 11.42Q27.47 12.38 26.73 13.05L26.73 13.05L26.73 13.05Q25.98 13.72 25.24 13.72L25.24 13.72L25.24 13.72Q24.50 13.72 24.10 13.21L24.10 13.21L24.10 13.21Q23.70 12.70 23.53 11.89L23.53 11.89L23.53 11.89Q23.37 11.09 23.23 10.23L23.23 10.23L23.23 10.23Q23.10 9.38 22.78 8.57L22.78 8.57L22.78 8.57Q22.46 7.76 21.90 7.35L21.90 7.35L21.90 7.35Q22.08 7.01 22.44 6.78L22.44 6.78L22.44 6.78Q22.81 6.55 23.23 6.55L23.23 6.55L23.23 6.55Q23.88 6.55 24.29 7.40L24.29 7.40L24.29 7.40Q24.70 8.25 24.82 9.27L24.82 9.27L24.82 9.27Q24.93 10.29 25.08 11.25L25.08 11.25L25.08 11.25Q25.23 12.21 25.42 12.35L25.42 12.35L25.42 12.35Q25.90 12.32 26.26 11.74L26.26 11.74L26.26 11.74Q26.61 11.16 26.78 10.33L26.78 10.33L26.78 10.33Q27.09 8.82 27.09 7.97L27.09 7.97L27.09 7.97Q27.09 7.11 27.01 6.65L27.01 6.65L27.01 6.65Q27.50 6.55 27.85 6.55L27.85 6.55L27.85 6.55Q29.05 6.55 29.05 7.70L29.05 7.70L29.05 7.70Q29.05 8.43 28.75 9.44L28.75 9.44L28.75 9.44Q28.45 10.46 27.96 11.42ZM31.18 10.46L31.18 10.46L31.18 10.46Q31.18 11.47 31.50 12.05L31.50 12.05L31.50 12.05Q31.82 12.63 32.58 12.63L32.58 12.63L32.58 12.63Q33.33 12.63 33.76 12.12L33.76 12.12L33.76 12.12Q34.19 11.61 34.19 10.88L34.19 10.88L34.19 10.88Q34.66 10.88 35.01 11.12L35.01 11.12L35.01 11.12Q35.36 11.35 35.36 11.77L35.36 11.77L35.36 11.77Q35.36 12.64 34.44 13.22L34.44 13.22L34.44 13.22Q33.52 13.80 32.49 13.80L32.49 13.80L32.49 13.80Q30.90 13.80 30.18 12.94L30.18 12.94L30.18 12.94Q29.47 12.08 29.47 10.39L29.47 10.39L29.47 10.39Q29.47 8.69 30.43 7.54L30.43 7.54L30.43 7.54Q31.39 6.38 32.98 6.38L32.98 6.38L32.98 6.38Q34.08 6.38 34.74 6.88L34.74 6.88L34.74 6.88Q35.41 7.38 35.41 8.42L35.41 8.42L35.41 8.42Q35.41 9.46 34.46 9.99L34.46 9.99L34.46 9.99Q33.52 10.51 32.16 10.51L32.16 10.51L32.16 10.51Q31.68 10.51 31.18 10.46ZM31.19 9.35L31.19 9.35L31.19 9.35Q31.61 9.44 32.07 9.44L32.07 9.44L32.07 9.44Q33.08 9.44 33.77 9.06L33.77 9.06L33.77 9.06Q33.85 8.72 33.85 8.53L33.85 8.53L33.85 8.53Q33.85 8.04 33.50 7.78L33.50 7.78L33.50 7.78Q33.15 7.53 32.54 7.53L32.54 7.53L32.54 7.53Q31.93 7.53 31.44 7.92L31.44 7.92L31.44 7.92Q31.19 8.65 31.19 9.35ZM36.88 3.30L36.88 3.30L36.88 3.30Q37.32 3.14 37.80 3.14L37.80 3.14L37.80 3.14Q38.28 3.14 38.59 3.45L38.59 3.45L38.59 3.45Q38.91 3.77 38.91 4.31L38.91 4.31L38.91 4.31Q38.91 4.84 38.76 6.46L38.76 6.46L38.76 6.46Q38.61 8.08 38.61 9.00L38.61 9.00L38.61 9.00Q38.61 11.28 38.93 13.47L38.93 13.47L38.93 13.47Q38.49 13.64 37.98 13.64L37.98 13.64L37.98 13.64Q36.90 13.64 36.90 12.59L36.90 12.59L36.90 12.59Q36.90 12.08 37.06 10.61L37.06 10.61L37.06 10.61Q37.21 9.13 37.21 8.23L37.21 8.23L37.21 8.23Q37.21 5.25 36.88 3.30ZM49.56 8.99L49.56 8.99L51.06 8.88L51.06 8.88Q51.90 8.88 51.90 9.73L51.90 9.73L51.90 9.73Q51.90 10.22 51.77 11.26L51.77 11.26L51.77 11.26Q51.65 12.29 51.65 12.94L51.65 12.94L51.65 12.94Q51.30 12.99 50.09 13.36L50.09 13.36L50.09 13.36Q48.87 13.72 48.06 13.72L48.06 13.72L48.06 13.72Q46.07 13.72 45.06 12.49L45.06 12.49L45.06 12.49Q44.04 11.26 44.04 9.13L44.04 9.13L44.04 9.13Q44.04 7.62 44.60 6.36L44.60 6.36L44.60 6.36Q45.15 5.10 46.24 4.31L46.24 4.31L46.24 4.31Q47.33 3.53 48.66 3.53L48.66 3.53L48.66 3.53Q49.98 3.53 50.87 4.14L50.87 4.14L50.87 4.14Q51.76 4.76 51.76 5.81L51.76 5.81L51.76 5.81Q51.76 6.40 51.41 6.80L51.41 6.80L51.41 6.80Q51.07 7.20 50.54 7.20L50.54 7.20L50.54 7.20Q50.01 7.20 49.80 7.07L49.80 7.07L49.80 7.07Q49.84 6.82 49.84 6.57L49.84 6.57L49.84 6.57Q49.84 5.82 49.42 5.36L49.42 5.36L49.42 5.36Q49 4.89 48.23 4.89L48.23 4.89L48.23 4.89Q47.46 4.89 46.77 5.40L46.77 5.40L46.77 5.40Q46.37 5.98 46.14 6.97L46.14 6.97L46.14 6.97Q45.92 7.97 45.92 8.90L45.92 8.90L45.92 8.90Q45.92 10.42 46.51 11.39L46.51 11.39L46.51 11.39Q47.10 12.36 48.37 12.36L48.37 12.36L48.37 12.36Q49.31 12.36 50.12 11.82L50.12 11.82L50.12 11.82Q50.18 11.27 50.18 10.25L50.18 10.25L50.18 10.25Q49.62 10.42 49.31 10.42L49.31 10.42L49.31 10.42Q48.54 10.42 48.54 9.60L48.54 9.60L48.54 9.60Q48.54 9.25 48.68 8.86L48.68 8.86L48.68 8.86Q49.06 8.99 49.56 8.99ZM53.48 12.21L53.48 12.21L53.62 9.30L53.62 9.30Q53.62 7.94 53.23 6.72L53.23 6.72L53.23 6.72Q53.62 6.55 54.19 6.55L54.19 6.55L54.19 6.55Q55.31 6.55 55.31 7.80L55.31 7.80L55.31 7.80Q55.31 8.50 55.16 9.77L55.16 9.77L55.16 9.77Q55.01 11.03 55.01 11.61L55.01 11.61L55.01 11.61Q55.01 12.31 55.64 12.31L55.64 12.31L55.64 12.31Q56.01 12.31 56.52 11.67L56.52 11.67L56.52 11.67Q57.04 11.03 57.41 10.24L57.41 10.24L57.41 10.24Q57.78 9.45 57.85 8.95L57.85 8.95L57.85 8.95Q57.76 7.41 57.61 6.72L57.61 6.72L57.61 6.72Q58.06 6.55 58.53 6.55L58.53 6.55L58.53 6.55Q59.00 6.55 59.31 6.85L59.31 6.85L59.31 6.85Q59.63 7.14 59.63 7.57L59.63 7.57L59.63 7.57Q59.63 8.01 59.50 9.02L59.50 9.02L59.50 9.02Q59.37 10.02 59.37 11.12L59.37 11.12L59.37 11.12Q59.37 12.22 59.63 13.47L59.63 13.47L59.63 13.47Q59.08 13.64 58.65 13.64L58.65 13.64L58.65 13.64Q57.78 13.64 57.78 12.49L57.78 12.49L57.78 12.49Q57.78 11.98 57.89 11.09L57.89 11.09L57.89 11.09Q57.33 12.28 56.52 13.00L56.52 13.00L56.52 13.00Q55.72 13.72 54.89 13.72L54.89 13.72L54.89 13.72Q53.48 13.72 53.48 12.21ZM63.11 13.47L63.11 13.47Q62.68 13.64 62.19 13.64L62.19 13.64L62.19 13.64Q61.70 13.64 61.40 13.41L61.40 13.41L61.40 13.41Q61.10 13.17 61.10 12.76L61.10 12.76L61.10 12.76Q61.10 12.35 61.22 11.26L61.22 11.26L61.22 11.26Q61.35 10.16 61.35 9.14L61.35 9.14L61.35 9.14Q61.35 8.11 61.03 6.72L61.03 6.72L61.03 6.72Q61.47 6.55 61.91 6.55L61.91 6.55L61.91 6.55Q62.34 6.55 62.66 6.85L62.66 6.85L62.66 6.85Q62.97 7.14 62.97 7.63L62.97 7.63L62.97 7.63Q62.97 7.88 62.89 8.38L62.89 8.38L62.89 8.38Q62.80 8.88 62.79 9.13L62.79 9.13L62.79 9.13Q63.34 7.88 64.08 7.18L64.08 7.18L64.08 7.18Q64.83 6.47 65.58 6.47L65.58 6.47L65.58 6.47Q66.09 6.47 66.40 6.83L66.40 6.83L66.40 6.83Q66.71 7.20 66.71 7.75L66.71 7.75L66.71 7.75Q66.71 8.30 66.43 8.64L66.43 8.64L66.43 8.64Q66.15 8.99 65.74 8.99L65.74 8.99L65.74 8.99Q65.32 8.99 65.07 8.90L65.07 8.90L65.07 8.90Q65.11 8.74 65.11 8.60L65.11 8.60L65.11 8.60Q65.11 8.02 64.71 8.02L64.71 8.02L64.71 8.02Q64.09 8.02 63.55 9.26L63.55 9.26L63.55 9.26Q63.01 10.50 62.83 11.58L62.83 11.58L62.83 11.58Q62.90 12.63 63.11 13.47L63.11 13.47ZM67.61 12.21L67.61 12.21L67.75 9.30L67.75 9.30Q67.75 7.94 67.35 6.72L67.35 6.72L67.35 6.72Q67.75 6.55 68.32 6.55L68.32 6.55L68.32 6.55Q69.44 6.55 69.44 7.80L69.44 7.80L69.44 7.80Q69.44 8.50 69.29 9.77L69.29 9.77L69.29 9.77Q69.13 11.03 69.13 11.61L69.13 11.61L69.13 11.61Q69.13 12.31 69.76 12.31L69.76 12.31L69.76 12.31Q70.14 12.31 70.65 11.67L70.65 11.67L70.65 11.67Q71.16 11.03 71.53 10.24L71.53 10.24L71.53 10.24Q71.90 9.45 71.97 8.95L71.97 8.95L71.97 8.95Q71.89 7.41 71.74 6.72L71.74 6.72L71.74 6.72Q72.18 6.55 72.65 6.55L72.65 6.55L72.65 6.55Q73.12 6.55 73.44 6.85L73.44 6.85L73.44 6.85Q73.75 7.14 73.75 7.57L73.75 7.57L73.75 7.57Q73.75 8.01 73.63 9.02L73.63 9.02L73.63 9.02Q73.50 10.02 73.50 11.12L73.50 11.12L73.50 11.12Q73.50 12.22 73.75 13.47L73.75 13.47L73.75 13.47Q73.21 13.64 72.77 13.64L72.77 13.64L72.77 13.64Q71.90 13.64 71.90 12.49L71.90 12.49L71.90 12.49Q71.90 11.98 72.02 11.09L72.02 11.09L72.02 11.09Q71.46 12.28 70.65 13.00L70.65 13.00L70.65 13.00Q69.85 13.72 69.02 13.72L69.02 13.72L69.02 13.72Q67.61 13.72 67.61 12.21Z"></path></g><!----><g data-v-423bf9ae="" id="2199dc09-22d0-411d-84ba-eb9f3fe9c12b" transform="matrix(2.8125,0,0,2.8125,163,0)" stroke="none" fill="#ffffff"><path style="line-height:normal;text-indent:0;text-align:start;text-decoration-line:none;text-decoration-style:solid;text-decoration-color:#000;text-transform:none;isolation:auto;mix-blend-mode:normal" d="M16 0C7.17 0 0 7.17 0 16s7.17 16 16 16 16-7.17 16-16S24.83 0 16 0zm0 1c8.29 0 15 6.71 15 15s-6.71 15-15 15S1 24.29 1 16 7.71 1 16 1z" color="#000" font-weight="400" font-family="sans-serif" white-space="normal" overflow="visible"></path><path style="line-height:normal;text-indent:0;text-align:start;text-decoration-line:none;text-decoration-style:solid;text-decoration-color:#000;text-transform:none;isolation:auto;mix-blend-mode:normal" d="M18.482 14.645l-11.982 12a14.281 14.281 0 0 0 9.5 3.637 14.281 14.281 0 0 0 11.816-6.264l-1.851-1.859-2.131 2.129a.5.5 0 0 1-.707 0l-2.145-2.143-2.144 2.143a.5.5 0 0 1-.707 0l-2.147-2.143-2.144 2.143a.5.5 0 0 1-.707 0l-1.252-1.25a.5.5 0 0 1 .707-.709l.898.898 2.147-2.142a.5.5 0 0 1 .705 0l2.146 2.142 2.145-2.142a.5.5 0 0 1 .707 0l2.144 2.142 1.78-1.777zM11.496 16.645l-7.305 7.366a14.281 14.281 0 0 0 1.577 1.95l7.52-7.529zM18.006 5.445v8.487h1V5.445zM19.503 5.937l5.44 2.251-5.44 2.252z" color="#000" font-weight="400" font-family="sans-serif" white-space="normal" overflow="visible"></path><path d="M10.75 10a2 2 0 0 1-2 2 2 2 0 0 1-2-2 2 2 0 0 1 2-2 2 2 0 0 1 2 2z"></path><path style="line-height:normal;text-indent:0;text-align:start;text-decoration-line:none;text-decoration-style:solid;text-decoration-color:#000;text-transform:none;isolation:auto;mix-blend-mode:normal" d="M8.25 5.75v1h1v-1zM8.25 13.25v1h1v-1zM12 9.5v1h1v-1zM4.5 9.5v1h1v-1zM6.098 6.643l-.707.707.707.707.707-.707zM11.402 11.945l-.707.707.707.707.707-.707zM11.402 6.643l-.707.707.707.707.707-.707zM6.098 11.945l-.707.707.707.707.707-.707z" color="#000" font-weight="400" font-family="sans-serif" white-space="normal" overflow="visible"></path></g><!----></svg>